<?xml version="1.0" encoding="UTF-8"?>
<svg version="1.1" viewBox="0 0 2000 2000" width="2000" height="2000" xmlns="http://www.w3.org/2000/svg">
<path transform="translate(1431,934)" d="m0 0 5 2 26 15 72 42 26 15 27 16 26 15 24 14 26 15 27 16 13 8v79l-2 209-1 26-28 16-24 14-26 15-48 28-26 15-27 16-28 16-48 28-26 15-48 28-26 15-48 28-26 15-48 28-26 15-27 16-28 16-48 28-26 15-48 28-19 11-5-1-21-12-51-30-27-16-24-14-29-17-51-30-51-30-15-9 3-3 26-15 28-16 26-15 28-16 24-14 23-13 24-14 23-13 24-14 23-13 24-14 23-13 24-14 23-13 24-14 23-13 24-14 23-13 24-14 23-13 24-14 23-13 24-14 23-13 24-14 23-13 24-14 25-14 17-10 9-5z" fill="#62C033"/>
<path transform="translate(997,188)" d="m0 0 6 1 52 30 24 14 26 15 24 14 52 30 24 14 52 30 24 14 52 30 24 14 52 30 24 14 52 30 24 14 26 15 24 14 52 30 24 14 52 30 13 8v314l-6-2-41-24-26-15-24-14-26-15-24-14-26-15-24-14-26-15-24-14-26-15-48-28-26-15-24-14-26-15-24-14-26-15-24-14-26-15-24-14-26-15-48-28-26-15-24-14-26-15-24-14-5-2-28 16-72 42-26 15-48 28-26 15-27 16-28 16-19 11h-1v-79l1-213 1-27 13-8 25-14 24-14 25-14 24-14 25-14 24-14 25-14 24-14 25-14 24-14z" fill="#F10304"/>
<path transform="translate(567,433)" d="m0 0h1v189l-1 543v81l17 10 234 135 20 12v2l-21 12-25 15-210 124-13 8-5-2-28-16-239-140v-810l16-10 32-19 23-14 28-17 32-19 56-34 32-19 28-17z" fill="#F6A112"/>
<path transform="translate(1e3 685)" d="m0 0 14 8 25 14 24 14 28 16 78 45 28 16 24 14 28 16 22 13v316l-26 15-27 16-26 15-27 16-26 15-27 16-26 15-29 17-53 31-8 4-15-9-32-19-28-17-64-38-28-17-27-16-32-19-28-17-13-8-1-13-2-209v-92l24-14 52-30 28-16 24-14 28-16 104-60z" fill="#0083D6"/>
<path transform="translate(884,253)" d="m0 0h1l15 287 1 16 1 4-28 16-48 28-26 15-27 16-28 16-19 11h-1v-79l1-213 1-27 13-8 25-14 24-14 25-14 24-14 25-14z" fill="#FE2F30"/>
<path transform="translate(1431,934)" d="m0 0 5 2 26 15 72 42 26 15 27 16 26 15 24 14 26 15 27 16 13 8v79l-1 27-8-1-207-59-56-16z" fill="#76DF43"/>
</svg>
